<svg xmlns="http://www.w3.org/2000/svg" xmlns:xlink="http://www.w3.org/1999/xlink" width="800" zoomAndPan="magnify" viewBox="0 0 600 599.999999" height="800" preserveAspectRatio="xMidYMid meet" version="1.0"><defs><g/><clipPath id="6f9d2a9560"><path d="M 300 0 C 134.316406 0 0 134.316406 0 300 C 0 465.683594 134.316406 600 300 600 C 465.683594 600 600 465.683594 600 300 C 600 134.316406 465.683594 0 300 0 Z M 300 0 " clip-rule="nonzero"/></clipPath><clipPath id="5c1df5d586"><path d="M 0 0 L 600 0 L 600 600 L 0 600 Z M 0 0 " clip-rule="nonzero"/></clipPath><clipPath id="e779e31ae1"><path d="M 300 0 C 134.316406 0 0 134.316406 0 300 C 0 465.683594 134.316406 600 300 600 C 465.683594 600 600 465.683594 600 300 C 600 134.316406 465.683594 0 300 0 Z M 300 0 " clip-rule="nonzero"/></clipPath><clipPath id="721fa81e70"><rect x="0" width="600" y="0" height="600"/></clipPath><clipPath id="1fef62f6e4"><rect x="0" width="475" y="0" height="422"/></clipPath></defs><g clip-path="url(#6f9d2a9560)"><g transform="matrix(1, 0, 0, 1, 0, -0.000000000000034788)"><g clip-path="url(#721fa81e70)"><g clip-path="url(#5c1df5d586)"><g clip-path="url(#e779e31ae1)"><rect x="-132" width="864" fill="#ffffff" height="863.999999" y="-132" fill-opacity="1"/></g></g></g></g></g><g transform="matrix(1, 0, 0, 1, 63, 89)"><g clip-path="url(#1fef62f6e4)"><g fill="#000000" fill-opacity="1"><g transform="translate(0.818501, 326.617396)"><g><path d="M 81.8125 0 L 5.9375 -230.75 L 60.828125 -230.75 L 115.03125 -42.65625 L 119.578125 -42.65625 L 173.765625 -230.75 L 228.3125 -230.75 L 151.734375 0 Z M 81.8125 0 "/></g></g></g><g fill="#000000" fill-opacity="1"><g transform="translate(235.061572, 326.617396)"><g><path d="M 24.828125 0 L 24.828125 -230.75 L 75.171875 -230.75 L 75.171875 -127.609375 C 86.828125 -132.503906 97.835938 -138.738281 108.203125 -146.3125 C 118.578125 -153.894531 127.785156 -162.285156 135.828125 -171.484375 C 143.867188 -180.691406 150.742188 -190.363281 156.453125 -200.5 C 162.160156 -210.644531 166.300781 -220.726562 168.875 -230.75 L 226.5625 -230.75 C 223.289062 -219.09375 218.390625 -207.613281 211.859375 -196.3125 C 205.335938 -185.007812 197.585938 -174.347656 188.609375 -164.328125 C 179.640625 -154.304688 170.023438 -145.390625 159.765625 -137.578125 C 149.515625 -129.765625 139.03125 -123.644531 128.3125 -119.21875 L 128.3125 -114.328125 C 141.59375 -114.328125 152.78125 -112.691406 161.875 -109.421875 C 170.96875 -106.160156 178.601562 -101.554688 184.78125 -95.609375 C 190.957031 -89.671875 196.203125 -82.914062 200.515625 -75.34375 C 204.828125 -67.769531 208.492188 -59.785156 211.515625 -51.390625 L 230.046875 0 L 173.0625 0 L 161.171875 -40.90625 C 158.378906 -50.457031 154.769531 -58.847656 150.34375 -66.078125 C 145.914062 -73.304688 139.503906 -78.957031 131.109375 -83.03125 C 122.710938 -87.113281 110.828125 -89.15625 95.453125 -89.15625 L 75.171875 -89.15625 L 75.171875 0 Z M 24.828125 0 "/></g></g></g></g></g></svg>